<svg width="85" height="85" viewBox="0 0 85 85" fill="none" xmlns="http://www.w3.org/2000/svg">
<path d="M83.5118 40.6089C87.2202 65.7641 69.3583 83 45.0372 83C20.7161 83 1 64.0209 1 40.6089C1 17.197 20.9326 5.46058 42.2559 0.0811752C65.4334 -1.31653 79.8034 15.4538 83.5118 40.6089Z" fill="#FFBB54"/>
<path d="M41 36.5C41 37.1213 40.3284 38 39.5 38C38.6716 38 38 37.1213 38 36.5C38 35.8787 38.6716 35 39.5 35C40.3284 35 41 35.8787 41 36.5Z" fill="#664411"/>
<path d="M49 36.5C49 37.1213 48.3284 38 47.5 38C46.6716 38 46 37.1213 46 36.5C46 35.8787 46.6716 35 47.5 35C48.3284 35 49 35.8787 49 36.5Z" fill="#664411"/>
</svg>
