<svg width="392" height="85" viewBox="0 0 392 85" fill="none" xmlns="http://www.w3.org/2000/svg">
<path d="M82.9626 42.2069C82.0199 68.6231 68.5701 85 43.8382 85C14.6127 85 0 66.2294 0 42.5954C0 18.9614 16.9696 0.742769 40.5386 0.272419C66.9358 -2.47098 83.9054 15.7907 82.9626 42.2069Z" fill="#D6993D"/>
<path d="M39.5958 37.9744C39.5958 38.7535 38.9627 39.8554 38.1817 39.8554C37.4007 39.8554 36.7676 38.7535 36.7676 37.9744C36.7676 37.1953 37.4007 36.0934 38.1817 36.0934C38.9627 36.0934 39.5958 37.1953 39.5958 37.9744Z" fill="#5A3908"/>
<path d="M48.0822 37.9744C48.0822 38.7535 47.449 39.8554 46.668 39.8554C45.887 39.8554 45.2539 38.7535 45.2539 37.9744C45.2539 37.1953 45.887 36.0934 46.668 36.0934C47.449 36.0934 48.0822 37.1953 48.0822 37.9744Z" fill="#5A3908"/>
<path d="M29.2256 44.4762L29.697 46.8275L31.1111 49.1787L32.5252 50.1192L34.4107 51.0598L36.7676 52.0003L39.5959 52.4705H42.4242H45.2525L47.6093 52.0003L49.9662 51.0598L52.3231 50.1192L54.2086 48.7085L55.1514 47.768L56.0942 46.3572" stroke="#5A3908" stroke-linecap="round"/>
<path d="M185.512 40.6089C189.22 65.7641 171.358 83 147.037 83C122.716 83 103 64.0209 103 40.6089C103 17.197 122.933 5.46058 144.256 0.0811752C167.433 -1.31653 181.803 15.4538 185.512 40.6089Z" fill="#FFBB54"/>
<path d="M143 36.5C143 37.1213 142.328 38 141.5 38C140.672 38 140 37.1213 140 36.5C140 35.8787 140.672 35 141.5 35C142.328 35 143 35.8787 143 36.5Z" fill="#664411"/>
<path d="M151 36.5C151 37.1213 150.328 38 149.5 38C148.672 38 148 37.1213 148 36.5C148 35.8787 148.672 35 149.5 35C150.328 35 151 35.8787 151 36.5Z" fill="#664411"/>
<path d="M285.966 42.1134C285.058 68.5873 274.935 85 248.278 85C219.33 85 209 65.799 209 42.1134C209 18.4278 217.854 9.00391 245.892 4.40909C269.503 1.34587 286.874 15.6395 285.966 42.1134Z" fill="#F0DEAD"/>
<path d="M236.639 39.7811H242.766" stroke="#7B5B04" stroke-linecap="round"/>
<path d="M258.086 39.7811H251.958" stroke="#7B5B04" stroke-linecap="round"/>
<path d="M391.643 42.2011C391.643 65.7678 374.722 79.7653 350.362 79.7653C326.002 79.7653 309 65.4795 309 42.2011C309 18.9227 325.616 3.21359 348.83 1.82386C372.044 0.434122 391.643 18.6345 391.643 42.2011Z" fill="#B2967E"/>
<path d="M345.488 37.2239C345.488 37.9913 344.864 39.0766 344.095 39.0766C343.326 39.0766 342.702 37.9913 342.702 37.2239C342.702 36.4565 343.326 35.3712 344.095 35.3712C344.864 35.3712 345.488 36.4565 345.488 37.2239Z" fill="#462713"/>
<path d="M357.286 37.2239C357.286 37.9913 356.662 39.0766 355.893 39.0766C355.124 39.0766 354.5 37.9913 354.5 37.2239C354.5 36.4565 355.124 35.3712 355.893 35.3712C356.662 35.3712 357.286 36.4565 357.286 37.2239Z" fill="#462713"/>
<path d="M347.906 43.1504C347.404 42.9306 341.725 39.2187 342.849 43.6418C343.63 46.7138 348.973 47.7752 351.278 47.5736C356.898 47.0821 358.021 44.2493 358.021 43.1504C358.021 41.1845 355.774 42.1675 354.088 43.1504C352.609 44.0124 349.031 43.6418 347.906 43.1504Z" stroke="#462713" stroke-width="0.5"/>
</svg>
