<svg width="85" height="85" viewBox="0 0 85 85" fill="none" xmlns="http://www.w3.org/2000/svg">
<path d="M83.643 42.2011C83.643 65.7678 66.7217 79.7653 42.3619 79.7653C18.0022 79.7653 1 65.4795 1 42.2011C1 18.9227 17.6157 3.21359 40.83 1.82386C64.0443 0.434122 83.643 18.6345 83.643 42.2011Z" fill="#B2967E"/>
<path d="M37.4879 37.2239C37.4879 37.9913 36.8643 39.0766 36.095 39.0766C35.3258 39.0766 34.7021 37.9913 34.7021 37.2239C34.7021 36.4565 35.3258 35.3712 36.095 35.3712C36.8643 35.3712 37.4879 36.4565 37.4879 37.2239Z" fill="#462713"/>
<path d="M49.2857 37.2239C49.2857 37.9913 48.6621 39.0766 47.8929 39.0766C47.1236 39.0766 46.5 37.9913 46.5 37.2239C46.5 36.4565 47.1236 35.3712 47.8929 35.3712C48.6621 35.3712 49.2857 36.4565 49.2857 37.2239Z" fill="#462713"/>
<path d="M39.9064 43.1504C39.4038 42.9306 33.7251 39.2187 34.849 43.6418C35.6296 46.7138 40.9727 47.7752 43.2782 47.5736C48.8976 47.0821 50.0214 44.2493 50.0214 43.1504C50.0214 41.1845 47.7736 42.1675 46.0878 43.1504C44.6093 44.0124 41.0305 43.6418 39.9064 43.1504Z" stroke="#462713" stroke-width="0.5"/>
</svg>
