<svg width="85" height="85" viewBox="0 0 85 85" fill="none" xmlns="http://www.w3.org/2000/svg">
<path d="M83.9626 42.2069C83.0199 68.6231 69.5701 85 44.8382 85C15.6127 85 1 66.2294 1 42.5954C1 18.9614 17.9696 0.742769 41.5386 0.272419C67.9358 -2.47098 84.9054 15.7907 83.9626 42.2069Z" fill="#D6993D"/>
<path d="M40.5958 37.9744C40.5958 38.7535 39.9627 39.8554 39.1817 39.8554C38.4007 39.8554 37.7676 38.7535 37.7676 37.9744C37.7676 37.1953 38.4007 36.0934 39.1817 36.0934C39.9627 36.0934 40.5958 37.1953 40.5958 37.9744Z" fill="#5A3908"/>
<path d="M49.0822 37.9744C49.0822 38.7535 48.449 39.8554 47.668 39.8554C46.887 39.8554 46.2539 38.7535 46.2539 37.9744C46.2539 37.1953 46.887 36.0934 47.668 36.0934C48.449 36.0934 49.0822 37.1953 49.0822 37.9744Z" fill="#5A3908"/>
<path d="M30.2256 44.4762L30.697 46.8275L32.1111 49.1787L33.5252 50.1192L35.4107 51.0598L37.7676 52.0003L40.5959 52.4705H43.4242H46.2525L48.6093 52.0003L50.9662 51.0598L53.3231 50.1192L55.2086 48.7085L56.1514 47.768L57.0942 46.3572" stroke="#5A3908" stroke-linecap="round"/>
</svg>
