<svg width="83" height="85" viewBox="0 0 83 85" fill="none" xmlns="http://www.w3.org/2000/svg">
<path d="M82.643 42.2011C82.643 65.7678 65.7217 79.7652 41.3619 79.7652C17.0022 79.7652 0 65.4795 0 42.2011C0 18.9227 16.6157 3.21357 39.83 1.82383C63.0443 0.434099 82.643 18.6345 82.643 42.2011Z" fill="#FFBB54"/>
<path d="M43.8172 45.9312C44.3198 46.1509 49.9985 49.8629 48.8746 45.4397C48.094 42.3678 42.7509 41.3064 40.4455 41.508C34.826 41.9994 33.7022 44.8322 33.7022 45.9312C33.7022 47.897 35.95 46.9141 37.6358 45.9312C39.1144 45.0691 42.6931 45.4397 43.8172 45.9312Z" stroke="black" stroke-width="0.5"/>
<path d="M36.4879 37.2239C36.4879 37.9913 35.8643 39.0766 35.095 39.0766C34.3258 39.0766 33.7021 37.9913 33.7021 37.2239C33.7021 36.4565 34.3258 35.3712 35.095 35.3712C35.8643 35.3712 36.4879 36.4565 36.4879 37.2239Z" fill="#462713"/>
<path d="M48.2857 37.2239C48.2857 37.9913 47.6621 39.0766 46.8929 39.0766C46.1236 39.0766 45.5 37.9913 45.5 37.2239C45.5 36.4565 46.1236 35.3712 46.8929 35.3712C47.6621 35.3712 48.2857 36.4565 48.2857 37.2239Z" fill="#462713"/>
</svg>
