<svg width="32" height="32" viewBox="0 0 32 32" fill="none" xmlns="http://www.w3.org/2000/svg">
<path d="M31.8623 15.8875C31.8623 24.7597 25.3385 30.0293 15.9468 30.0293C6.55507 30.0293 0 24.6511 0 15.8875C0 7.12388 6.40605 1.20984 15.3562 0.68665C24.3062 0.163456 31.8623 7.01535 31.8623 15.8875Z" fill="#B2967E"/>
<path d="M20.3015 13.4193C20.3015 13.8469 19.9164 14.4516 19.4413 14.4516C18.9662 14.4516 18.5811 13.8469 18.5811 13.4193C18.5811 12.9918 18.9662 12.3871 19.4413 12.3871C19.9164 12.3871 20.3015 12.9918 20.3015 13.4193Z" fill="#462713"/>
<path d="M13.7204 13.0323C13.7204 13.4598 13.3353 14.0645 12.8602 14.0645C12.3851 14.0645 12 13.4598 12 13.0323C12 12.6047 12.3851 12 12.8602 12C13.3353 12 13.7204 12.6047 13.7204 13.0323Z" fill="#462713"/>
<path d="M14.7384 16.7658C14.4449 16.6421 11.1286 14.5527 11.785 17.0424C12.2409 18.7715 15.3612 19.3689 16.7075 19.2554C19.9892 18.9788 20.6455 17.3843 20.6455 16.7658C20.6455 15.6592 19.3328 16.2125 18.3483 16.7657C17.4849 17.251 15.3949 17.0424 14.7384 16.7658Z" stroke="#462713" stroke-width="0.7"/>
</svg>
